# xmcd
#
# Track frame offsets:
# 150
# 12380
# 23142
# 36532
# 50977
# 63607
# 76110
# 87452
# 101300
# 113720
# 125467
# 137225
# 149427
# 162622
# 179267
# 196612
# 209187
# 222690
# 234845
# 248192
# 257860
# 269082
#
# Disc length: 3754 seconds
#
#
# Revision: 0
# Processed by: cddbd v1.4PL0 Copyright (c) Steve Scherf et al.
# Submitted via: FreeRIP 2.10 
#
DISCID=580ea816
DTITLE=Dean Martin - The Country Side of Dean Martin
DYEAR=1998
DGENRE=Country
TTITLE0=I Can't Help It
TTITLE1=King of the Road
TTITLE2=Bouquet of Roses
TTITLE3=Release Me (And Let Me Love Again)
TTITLE4=Little Ole Wine Drinker, Me
TTITLE5=He's Got You
TTITLE6=Send Me the Pillow You Dream On
TTITLE7=Candy Kisses
TTITLE8=By the Time I Get to Phoenix
TTITLE9=I'll Hold You in My Heart (Till I Can Hold You in My Arms)
TTITLE10=I'm So Lonesome I Could Cry
TTITLE11=Houston
TTITLE12=My Shoes Keep Walking Back to You
TTITLE13=Detroit City
TTITLE14=For the Good Times
TTITLE15=Make the World Go Away
TTITLE16=Room Full of Roses
TTITLE17=Walk On By
TTITLE18=Crying Time
TTITLE19=Singing the Blues
TTITLE20=Born to Lose
TTITLE21=Gentle on My Mind
EXTD=
EXTT0=
EXTT1=
EXTT2=
EXTT3=
EXTT4=
EXTT5=
EXTT6=
EXTT7=
EXTT8=
EXTT9=
EXTT10=
EXTT11=
EXTT12=
EXTT13=
EXTT14=
EXTT15=
EXTT16=
EXTT17=
EXTT18=
EXTT19=
EXTT20=
EXTT21=
PLAYORDER=
